{"title":"Elementary S02E18 HDTV x264 AAC E-Subs [GWC].mp4","uid":9758944,"size":119006997,"categoryP":"video","categoryS":"tv_shows","magnet":"?xt=urn:btih:023f5d74a5399e3ea163428ef189748f6e2eb97a&amp;dn=Elementary+S02E18+HDTV+x264+AAC+E-Subs+%5BGWC%5D.mp4&amp;tr=udp%3A%2F%2Ftracker.openbittorrent.com%3A80&amp;tr=udp%3A%2F%2Fopen.demonii.com%3A1337&amp;tr=udp%3A%2F%2Ftracker.coppersurfer.tk%3A6969&amp;tr=udp%3A%2F%2Fexodus.desync.com%3A6969","seeders":6,"leechers":0,"uploader":"canc232","files":1,"time":1394784847,"description":"Elementary S02E18 HDTV x264 AAC E-Subs [GWC]\n\n\nSTORYLINE :\nA modern take on the cases of Sherlock Holmes, with the detective now living in New York City.\n\n\nSCREENS : &lt;a href=&quot;\nhttp://i.imgur.com/1nZwHYD.jpg&quot; rel=&quot;nofollow&quot; target=&quot;_NEW&quot;&gt;\nhttp://i.imgur.com/1nZwHYD.jpg&lt;/a&gt; &lt;a href=&quot;\nhttp://i.imgur.com/d2AA9cn.jpg&quot; rel=&quot;nofollow&quot; target=&quot;_NEW&quot;&gt;\nhttp://i.imgur.com/d2AA9cn.jpg&lt;/a&gt; &lt;a href=&quot;\nhttp://i.imgur.com/2eWFpYi.jpg&quot; rel=&quot;nofollow&quot; target=&quot;_NEW&quot;&gt;\nhttp://i.imgur.com/2eWFpYi.jpg&lt;/a&gt;\n\n\nMEDIA INFO :\nGeneral  \nFormat : MPEG-4 \nFormat profile : Base Media \nFile size : 113 MiB \nDuration : 43mn 27s \nOverall bit rate mode : Variable \nOverall bit rate : 365 Kbps \n\nVideo \nFormat : AVC  \nFormat profile : &lt;a class=&quot;__cf_email__&quot; href=&quot;/cdn-cgi/l/email-protection&quot; data-cfemail=&quot;f1b9989699b1bdc2dfc1&quot;&gt;[email&amp;#160;protected]&lt;/a&gt;&lt;script cf-hash='f9e31' type=&quot;text/javascript&quot;&gt;\n/* &lt;![CDATA[ */!function(){try{var t=&quot;currentScript&quot;in document?document.currentScript:function(){for(var t=document.getElementsByTagName(&quot;script&quot;),e=t.length;e--;)if(t[e].getAttribute(&quot;cf-hash&quot;))return t[e]}();if(t&amp;&amp;t.previousSibling){var e,r,n,i,c=t.previousSibling,a=c.getAttribute(&quot;data-cfemail&quot;);if(a){for(e=&quot;&quot;,r=parseInt(a.substr(0,2),16),n=2;a.length-n;n+=2)i=parseInt(a.substr(n,2),16)^r,e+=String.fromCharCode(i);e=document.createTextNode(e),c.parentNode.replaceChild(e,c)}}}catch(u){}}();/* ]]&gt; */&lt;/script&gt; \nFormat settings, CABAC : Yes \nFormat settings, ReFrames : 4 frames \nDuration : 43mn 27s \nBit rate : 298 Kbps \nMaximum bit rate : 1 409 Kbps \nWidth : 720 pixels \nHeight : 404 pixels \nDisplay aspect ratio : 16:9 \nFrame rate : 23.976 fps \nStream size : 92.6 MiB (82%) \nTitle : Elementary S02E18 HDTV x264 AAC E-Subs [GWC] \nWriting library : x264 core \n\nAudio \nFormat : AAC \nFormat profile : HE-AAC / LC \nDuration : 43mn 27s \nChannel(s) : 2 channels \nSampling rate : 48.0 KHz / 24.0 KHz \nStream size : 19.8 MiB (17%) \nLanguage : English \n\nText \nFormat : Timed Text \nDuration : 42mn 52s \nStream size : 39.3 KiB (0%) \nTitle : English Subtitle by elderman \nLanguage : English ","torrent":{"xt":"urn:btih:023f5d74a5399e3ea163428ef189748f6e2eb97a","amp;dn":"Elementary+S02E18+HDTV+x264+AAC+E-Subs+%5BGWC%5D.mp4","amp;tr":["udp%3A%2F%2Ftracker.openbittorrent.com%3A80","udp%3A%2F%2Fopen.demonii.com%3A1337","udp%3A%2F%2Ftracker.coppersurfer.tk%3A6969","udp%3A%2F%2Fexodus.desync.com%3A6969"],"infoHash":"023f5d74a5399e3ea163428ef189748f6e2eb97a","infoHashBuffer":{"type":"Buffer","data":[2,63,93,116,165,57,158,62,161,99,66,142,241,137,116,143,110,46,185,122]},"announce":[],"urlList":[]}}